<svg width="40" height="41" viewBox="0 0 40 41" fill="none" xmlns="http://www.w3.org/2000/svg">
<path d="M19.9993 20.8499C20.4596 20.8499 20.8327 20.4768 20.8327 20.0165C20.8327 19.5563 20.4596 19.1832 19.9993 19.1832C19.5391 19.1832 19.166 19.5563 19.166 20.0165C19.166 20.4768 19.5391 20.8499 19.9993 20.8499Z" stroke="#B0B0B0" stroke-width="1.66667" stroke-linecap="round" stroke-linejoin="round"/>
<path d="M19.9993 15.0165C20.4596 15.0165 20.8327 14.6434 20.8327 14.1832C20.8327 13.7229 20.4596 13.3499 19.9993 13.3499C19.5391 13.3499 19.166 13.7229 19.166 14.1832C19.166 14.6434 19.5391 15.0165 19.9993 15.0165Z" stroke="#B0B0B0" stroke-width="1.66667" stroke-linecap="round" stroke-linejoin="round"/>
<path d="M19.9993 26.6832C20.4596 26.6832 20.8327 26.3101 20.8327 25.8499C20.8327 25.3896 20.4596 25.0165 19.9993 25.0165C19.5391 25.0165 19.166 25.3896 19.166 25.8499C19.166 26.3101 19.5391 26.6832 19.9993 26.6832Z" stroke="#B0B0B0" stroke-width="1.66667" stroke-linecap="round" stroke-linejoin="round"/>
</svg>
